<?xml version="1.0" standalone="no"?><!DOCTYPE svg PUBLIC "-//W3C//DTD SVG 1.1//EN" "http://www.w3.org/Graphics/SVG/1.1/DTD/svg11.dtd"><svg t="1694919845001" class="icon" viewBox="0 0 1024 1024" version="1.1" xmlns="http://www.w3.org/2000/svg" p-id="7970" xmlns:xlink="http://www.w3.org/1999/xlink" width="128" height="128"><path d="M841.142857 73.142857c47.104 0 85.357714 38.180571 85.357714 85.357714V566.857143A254.902857 254.902857 0 0 0 768 512c-42.057143 0-81.773714 10.166857-116.809143 28.16l-45.202286-52.516571a17.042286 17.042286 0 0 0-25.234285-0.731429L366.884571 709.851429a17.042286 17.042286 0 0 0 12.288 28.818285h134.509715a258.925714 258.925714 0 0 0 8.923428 102.473143H158.500571A85.357714 85.357714 0 0 1 73.142857 755.785143V158.500571C73.142857 111.323429 111.323429 73.142857 158.500571 73.142857H841.142857zM243.785143 329.142857a85.357714 85.357714 0 1 0 170.715428 0 85.357714 85.357714 0 0 0-170.715428 0z" fill="#393C5A" p-id="7971"></path><path d="M768 585.142857a182.857143 182.857143 0 1 1 0 365.714286 182.857143 182.857143 0 0 1 0-365.714286z m-12.653714 64.585143a11.922286 11.922286 0 0 0-11.849143 11.995429l0.731428 134.948571c0 6.582857 5.339429 11.849143 11.922286 11.849143l24.502857-0.073143c6.582857 0 11.922286-5.412571 11.849143-11.995429l-0.731428-134.948571a11.922286 11.922286 0 0 0-11.922286-11.849143l-24.502857 0.073143z m12.653714 237.714286a28.672 28.672 0 1 0 0-57.417143 28.672 28.672 0 0 0 0 57.417143z" fill="#393C5A" p-id="7972"></path></svg>