<svg width="25" height="25" viewBox="0 0 25 25" fill="none" xmlns="http://www.w3.org/2000/svg">
<path fill-rule="evenodd" clip-rule="evenodd" d="M12.25 1C9.70481 1 9.46418 5.43315 7.94889 6.99947C6.43361 8.56578 1.72275 6.7749 1.06823 9.55503C0.415093 12.3366 4.65294 13.2804 5.17545 15.6668C5.70071 18.0532 3.11153 21.4062 5.32396 23.0748C7.53638 24.742 9.91794 20.9684 12.25 20.9684C14.582 20.9684 16.9636 24.742 19.176 23.0748C21.3884 21.4062 18.8006 18.0532 19.3245 15.6668C19.8484 13.2804 24.0849 12.3366 23.4317 9.55503C22.7786 6.7749 18.0664 8.56578 16.5525 6.99947C15.0372 5.43315 14.7952 1 12.25 1Z" stroke="#130F26" stroke-width="1.5" stroke-linecap="round" stroke-linejoin="round"/>
</svg>
