<svg width="23" height="23" viewBox="0 0 23 23" fill="none" xmlns="http://www.w3.org/2000/svg">
<path fill-rule="evenodd" clip-rule="evenodd" d="M11.25 0C8.70481 0 8.46418 4.43315 6.94889 5.99947C5.43361 7.56578 0.722748 5.7749 0.0682334 8.55503C-0.584907 11.3366 3.65294 12.2804 4.17545 14.6668C4.70072 17.0532 2.11153 20.4062 4.32396 22.0748C6.53638 23.742 8.91794 19.9684 11.25 19.9684C13.582 19.9684 15.9636 23.742 18.176 22.0748C20.3885 20.4062 17.8006 17.0532 18.3245 14.6668C18.8484 12.2804 23.0849 11.3366 22.4317 8.55503C21.7786 5.7749 17.0664 7.56578 15.5525 5.99947C14.0372 4.43315 13.7952 0 11.25 0Z" fill="#F5B22E"/>
</svg>
